<svg width="199" height="163" viewBox="0 0 199 163" fill="none" xmlns="http://www.w3.org/2000/svg">
<path d="M4.718 115V106.894H7.602V105.662H0.42V106.894H3.318V115H4.718ZM10.5685 115.168C11.6605 115.168 12.6125 114.818 13.2845 114.16L12.6965 113.334C12.1925 113.852 11.4085 114.132 10.6945 114.132C9.33647 114.132 8.49647 113.18 8.39847 112.032H13.7465V111.724C13.7465 109.652 12.4865 108.07 10.4565 108.07C8.48247 108.07 7.06847 109.652 7.06847 111.612C7.06847 113.74 8.55247 115.168 10.5685 115.168ZM12.5145 111.122H8.38447C8.45447 110.198 9.09847 109.106 10.4565 109.106C11.8845 109.106 12.4865 110.226 12.5145 111.122ZM16.5825 115V105.662H15.3225V115H16.5825ZM19.85 115V105.662H18.59V115H19.85ZM31.291 115V108.238H30.031V113.096C29.653 113.6 28.939 114.048 28.155 114.048C27.287 114.048 26.727 113.712 26.727 112.592V108.238H25.467V113.012C25.467 114.44 26.181 115.168 27.623 115.168C28.659 115.168 29.513 114.636 30.031 114.076V115H31.291ZM35.5133 115.168C37.2913 115.168 38.2433 114.258 38.2433 113.096C38.2433 111.542 36.8433 111.22 35.6673 110.954C34.8273 110.758 34.0993 110.604 34.0993 110.03C34.0993 109.484 34.6313 109.092 35.4853 109.092C36.3393 109.092 37.0953 109.442 37.4873 109.918L38.0473 109.036C37.4733 108.49 36.6333 108.07 35.4713 108.07C33.8193 108.07 32.8953 108.994 32.8953 110.072C32.8953 111.528 34.2393 111.836 35.3873 112.102C36.2553 112.298 37.0253 112.48 37.0253 113.124C37.0253 113.726 36.5213 114.16 35.5693 114.16C34.6593 114.16 33.7633 113.698 33.3013 113.194L32.6993 114.118C33.3853 114.818 34.3793 115.168 35.5133 115.168ZM48.8775 115V110.436C48.8775 108.714 47.6315 108.07 46.1615 108.07C45.0695 108.07 44.1455 108.434 43.3895 109.176L43.9355 110.044C44.5375 109.442 45.1955 109.148 45.9655 109.148C46.9315 109.148 47.6175 109.652 47.6175 110.492V111.612C47.0995 111.01 46.3155 110.716 45.4055 110.716C44.2715 110.716 43.0535 111.388 43.0535 112.928C43.0535 114.412 44.2855 115.168 45.4055 115.168C46.3155 115.168 47.0855 114.846 47.6175 114.258V115H48.8775ZM45.8815 114.286C44.9715 114.286 44.3275 113.74 44.3275 112.942C44.3275 112.144 44.9715 111.598 45.8815 111.598C46.5815 111.598 47.2395 111.864 47.6175 112.368V113.516C47.2395 114.02 46.5815 114.286 45.8815 114.286ZM52.1567 113.068V110.198C52.4927 109.652 53.2627 109.19 54.0327 109.19C55.2927 109.19 56.0767 110.212 56.0767 111.626C56.0767 113.04 55.2927 114.048 54.0327 114.048C53.2627 114.048 52.4927 113.614 52.1567 113.068ZM52.1567 115V114.034C52.6607 114.706 53.4587 115.168 54.3687 115.168C56.1187 115.168 57.3787 113.838 57.3787 111.626C57.3787 109.456 56.1327 108.07 54.3687 108.07C53.4867 108.07 52.6887 108.49 52.1567 109.218V105.662H50.8967V115H52.1567ZM61.9864 115.168C64.1004 115.168 65.4024 113.572 65.4024 111.612C65.4024 109.666 64.1004 108.07 61.9864 108.07C59.8864 108.07 58.5704 109.666 58.5704 111.612C58.5704 113.572 59.8864 115.168 61.9864 115.168ZM61.9864 114.048C60.6424 114.048 59.8864 112.9 59.8864 111.612C59.8864 110.338 60.6424 109.19 61.9864 109.19C63.3444 109.19 64.0864 110.338 64.0864 111.612C64.0864 112.9 63.3444 114.048 61.9864 114.048ZM72.8261 115V108.238H71.5661V113.096C71.1881 113.6 70.4741 114.048 69.6901 114.048C68.8221 114.048 68.2621 113.712 68.2621 112.592V108.238H67.0021V113.012C67.0021 114.44 67.7161 115.168 69.1581 115.168C70.1941 115.168 71.0481 114.636 71.5661 114.076V115H72.8261ZM76.6845 115.168C77.3425 115.168 77.7345 114.986 78.0005 114.734L77.6785 113.782C77.5525 113.922 77.2865 114.048 76.9925 114.048C76.5585 114.048 76.3345 113.698 76.3345 113.222V109.344H77.7065V108.238H76.3345V106.39H75.0745V108.238H73.9545V109.344H75.0745V113.502C75.0745 114.566 75.6205 115.168 76.6845 115.168ZM84.5731 115.168C85.2311 115.168 85.6231 114.986 85.8891 114.734L85.5671 113.782C85.4411 113.922 85.1751 114.048 84.8811 114.048C84.4471 114.048 84.2231 113.698 84.2231 113.222V109.344H85.5951V108.238H84.2231V106.39H82.9631V108.238H81.8431V109.344H82.9631V113.502C82.9631 114.566 83.5091 115.168 84.5731 115.168ZM92.8144 115V110.226C92.8144 108.798 92.0864 108.07 90.6444 108.07C89.6084 108.07 88.6984 108.644 88.2504 109.19V105.662H86.9904V115H88.2504V110.17C88.6144 109.666 89.3284 109.19 90.1124 109.19C90.9804 109.19 91.5544 109.526 91.5544 110.646V115H92.8144ZM97.9044 115.168C98.9964 115.168 99.9484 114.818 100.62 114.16L100.032 113.334C99.5284 113.852 98.7444 114.132 98.0304 114.132C96.6724 114.132 95.8324 113.18 95.7344 112.032H101.082V111.724C101.082 109.652 99.8224 108.07 97.7924 108.07C95.8184 108.07 94.4044 109.652 94.4044 111.612C94.4044 113.74 95.8884 115.168 97.9044 115.168ZM99.8504 111.122H95.7204C95.7904 110.198 96.4344 109.106 97.7924 109.106C99.2204 109.106 99.8224 110.226 99.8504 111.122ZM107.528 115V105.662H106.268V115H107.528ZM112.531 115.168C114.645 115.168 115.947 113.572 115.947 111.612C115.947 109.666 114.645 108.07 112.531 108.07C110.431 108.07 109.115 109.666 109.115 111.612C109.115 113.572 110.431 115.168 112.531 115.168ZM112.531 114.048C111.187 114.048 110.431 112.9 110.431 111.612C110.431 110.338 111.187 109.19 112.531 109.19C113.889 109.19 114.631 110.338 114.631 111.612C114.631 112.9 113.889 114.048 112.531 114.048ZM122.979 115V110.436C122.979 108.714 121.733 108.07 120.263 108.07C119.171 108.07 118.247 108.434 117.491 109.176L118.037 110.044C118.639 109.442 119.297 109.148 120.067 109.148C121.033 109.148 121.719 109.652 121.719 110.492V111.612C121.201 111.01 120.417 110.716 119.507 110.716C118.373 110.716 117.155 111.388 117.155 112.928C117.155 114.412 118.387 115.168 119.507 115.168C120.417 115.168 121.187 114.846 121.719 114.258V115H122.979ZM119.983 114.286C119.073 114.286 118.429 113.74 118.429 112.942C118.429 112.144 119.073 111.598 119.983 111.598C120.683 111.598 121.341 111.864 121.719 112.368V113.516C121.341 114.02 120.683 114.286 119.983 114.286ZM130.822 115V110.254C130.822 108.826 130.08 108.07 128.652 108.07C127.602 108.07 126.706 108.644 126.258 109.19V108.238H124.998V115H126.258V110.17C126.622 109.666 127.336 109.19 128.12 109.19C128.988 109.19 129.562 109.554 129.562 110.674V115H130.822ZM136.092 117.646C136.288 117.702 136.666 117.744 136.876 117.744C137.856 117.73 138.598 117.352 139.032 116.288L142.364 108.238H141.006L138.892 113.544L136.778 108.238H135.434L138.22 115.07L137.828 115.966C137.618 116.47 137.31 116.624 136.848 116.624C136.68 116.624 136.442 116.582 136.288 116.512L136.092 117.646ZM146.383 115.168C148.497 115.168 149.799 113.572 149.799 111.612C149.799 109.666 148.497 108.07 146.383 108.07C144.283 108.07 142.967 109.666 142.967 111.612C142.967 113.572 144.283 115.168 146.383 115.168ZM146.383 114.048C145.039 114.048 144.283 112.9 144.283 111.612C144.283 110.338 145.039 109.19 146.383 109.19C147.741 109.19 148.483 110.338 148.483 111.612C148.483 112.9 147.741 114.048 146.383 114.048ZM157.223 115V108.238H155.963V113.096C155.585 113.6 154.871 114.048 154.087 114.048C153.219 114.048 152.659 113.712 152.659 112.592V108.238H151.399V113.012C151.399 114.44 152.113 115.168 153.555 115.168C154.591 115.168 155.445 114.636 155.963 114.076V115H157.223ZM160.829 106.684C160.829 105.942 160.367 105.522 159.849 105.522C159.373 105.522 158.995 105.914 158.995 106.39C158.995 106.852 159.317 107.188 159.751 107.188C159.821 107.188 159.933 107.16 159.961 107.146C159.891 107.608 159.457 108.182 159.009 108.462L159.597 108.938C160.311 108.448 160.829 107.608 160.829 106.684ZM163.801 115V110.296C164.095 109.792 164.949 109.316 165.579 109.316C165.747 109.316 165.887 109.33 166.013 109.358V108.084C165.117 108.084 164.319 108.602 163.801 109.274V108.238H162.541V115H163.801ZM170.352 115.168C171.444 115.168 172.396 114.818 173.068 114.16L172.48 113.334C171.976 113.852 171.192 114.132 170.478 114.132C169.12 114.132 168.28 113.18 168.182 112.032H173.53V111.724C173.53 109.652 172.27 108.07 170.24 108.07C168.266 108.07 166.852 109.652 166.852 111.612C166.852 113.74 168.336 115.168 170.352 115.168ZM172.298 111.122H168.168C168.238 110.198 168.882 109.106 170.24 109.106C171.668 109.106 172.27 110.226 172.298 111.122ZM2.268 136V126.662H1.008V136H2.268ZM7.27158 136.168C9.38558 136.168 10.6876 134.572 10.6876 132.612C10.6876 130.666 9.38558 129.07 7.27158 129.07C5.17158 129.07 3.85558 130.666 3.85558 132.612C3.85558 134.572 5.17158 136.168 7.27158 136.168ZM7.27158 135.048C5.92758 135.048 5.17158 133.9 5.17158 132.612C5.17158 131.338 5.92758 130.19 7.27158 130.19C8.62958 130.19 9.37158 131.338 9.37158 132.612C9.37158 133.9 8.62958 135.048 7.27158 135.048ZM15.2833 136.168C17.3973 136.168 18.6993 134.572 18.6993 132.612C18.6993 130.666 17.3973 129.07 15.2833 129.07C13.1833 129.07 11.8673 130.666 11.8673 132.612C11.8673 134.572 13.1833 136.168 15.2833 136.168ZM15.2833 135.048C13.9393 135.048 13.1833 133.9 13.1833 132.612C13.1833 131.338 13.9393 130.19 15.2833 130.19C16.6413 130.19 17.3833 131.338 17.3833 132.612C17.3833 133.9 16.6413 135.048 15.2833 135.048ZM26.431 136L23.491 132.304L26.403 129.238H24.821L21.559 132.668V126.662H20.299V136H21.559V134.124L22.581 133.088L24.835 136H26.431ZM28.1885 128.342C28.6365 128.342 29.0005 127.978 29.0005 127.53C29.0005 127.082 28.6365 126.732 28.1885 126.732C27.7545 126.732 27.3765 127.082 27.3765 127.53C27.3765 127.978 27.7545 128.342 28.1885 128.342ZM28.8325 136V129.238H27.5725V136H28.8325ZM36.664 136V131.254C36.664 129.826 35.922 129.07 34.494 129.07C33.444 129.07 32.548 129.644 32.1 130.19V129.238H30.84V136H32.1V131.17C32.464 130.666 33.178 130.19 33.962 130.19C34.83 130.19 35.404 130.554 35.404 131.674V136H36.664ZM41.3763 138.744C43.0423 138.744 44.7363 138.058 44.7363 135.734V129.238H43.4763V130.218C42.9303 129.49 42.1323 129.07 41.2503 129.07C39.5003 129.07 38.2403 130.386 38.2403 132.556C38.2403 134.768 39.5003 136.056 41.2503 136.056C42.1603 136.056 42.9583 135.566 43.4763 134.894V135.776C43.4763 137.204 42.4263 137.708 41.3763 137.708C40.4523 137.708 39.7663 137.456 39.2063 136.812L38.6043 137.736C39.4163 138.506 40.2423 138.744 41.3763 138.744ZM41.6003 134.936C40.3403 134.936 39.5563 133.956 39.5563 132.556C39.5563 131.17 40.3403 130.19 41.6003 130.19C42.3563 130.19 43.1263 130.638 43.4763 131.184V133.928C43.1263 134.474 42.3563 134.936 41.6003 134.936ZM51.9178 136V130.344H53.2898V129.238H51.9178V128.79C51.9178 127.978 52.2958 127.558 52.9258 127.558C53.1498 127.558 53.3598 127.614 53.5278 127.712L53.8218 126.774C53.5278 126.606 53.1498 126.522 52.7158 126.522C51.5118 126.522 50.6578 127.334 50.6578 128.79V129.238H49.5378V130.344H50.6578V136H51.9178ZM57.4884 136.168C59.6024 136.168 60.9044 134.572 60.9044 132.612C60.9044 130.666 59.6024 129.07 57.4884 129.07C55.3884 129.07 54.0724 130.666 54.0724 132.612C54.0724 134.572 55.3884 136.168 57.4884 136.168ZM57.4884 135.048C56.1444 135.048 55.3884 133.9 55.3884 132.612C55.3884 131.338 56.1444 130.19 57.4884 130.19C58.8464 130.19 59.5884 131.338 59.5884 132.612C59.5884 133.9 58.8464 135.048 57.4884 135.048ZM63.7641 136V131.296C64.0581 130.792 64.9121 130.316 65.5421 130.316C65.7101 130.316 65.8501 130.33 65.9761 130.358V129.084C65.0801 129.084 64.2821 129.602 63.7641 130.274V129.238H62.5041V136H63.7641ZM66.7028 136.154C67.1788 136.154 67.5848 135.748 67.5848 135.272C67.5848 134.796 67.1788 134.404 66.7028 134.404C66.2268 134.404 65.8348 134.796 65.8348 135.272C65.8348 135.748 66.2268 136.154 66.7028 136.154ZM77.1201 136V132.094L80.7601 126.662H79.1361L76.4201 130.834L73.6761 126.662H72.0661L75.7201 132.094V136H77.1201ZM83.0821 136.168C85.1961 136.168 86.4981 134.572 86.4981 132.612C86.4981 130.666 85.1961 129.07 83.0821 129.07C80.9821 129.07 79.6661 130.666 79.6661 132.612C79.6661 134.572 80.9821 136.168 83.0821 136.168ZM83.0821 135.048C81.7381 135.048 80.9821 133.9 80.9821 132.612C80.9821 131.338 81.7381 130.19 83.0821 130.19C84.4401 130.19 85.1821 131.338 85.1821 132.612C85.1821 133.9 84.4401 135.048 83.0821 135.048ZM93.9218 136V129.238H92.6618V134.096C92.2838 134.6 91.5698 135.048 90.7858 135.048C89.9178 135.048 89.3578 134.712 89.3578 133.592V129.238H88.0978V134.012C88.0978 135.44 88.8118 136.168 90.2538 136.168C91.2898 136.168 92.1438 135.636 92.6618 135.076V136H93.9218ZM97.1782 136V131.296C97.4722 130.792 98.3262 130.316 98.9562 130.316C99.1242 130.316 99.2642 130.33 99.3902 130.358V129.084C98.4942 129.084 97.6962 129.602 97.1782 130.274V129.238H95.9182V136H97.1782ZM107.338 136.168C108.43 136.168 109.382 135.818 110.054 135.16L109.466 134.334C108.962 134.852 108.178 135.132 107.464 135.132C106.106 135.132 105.266 134.18 105.168 133.032H110.516V132.724C110.516 130.652 109.256 129.07 107.226 129.07C105.252 129.07 103.838 130.652 103.838 132.612C103.838 134.74 105.322 136.168 107.338 136.168ZM109.284 132.122H105.154C105.224 131.198 105.868 130.106 107.226 130.106C108.654 130.106 109.256 131.226 109.284 132.122ZM117.916 136V131.254C117.916 129.826 117.174 129.07 115.746 129.07C114.696 129.07 113.8 129.644 113.352 130.19V129.238H112.092V136H113.352V131.17C113.716 130.666 114.43 130.19 115.214 130.19C116.082 130.19 116.656 130.554 116.656 131.674V136H117.916ZM122.81 135.048C121.55 135.048 120.78 134.026 120.78 132.612C120.78 131.212 121.55 130.19 122.81 130.19C123.566 130.19 124.35 130.638 124.686 131.184V134.054C124.35 134.586 123.566 135.048 122.81 135.048ZM122.46 136.168C123.356 136.168 124.14 135.762 124.686 135.02V138.576H125.946V129.238H124.686V130.204C124.196 129.532 123.384 129.07 122.46 129.07C120.696 129.07 119.464 130.4 119.464 132.612C119.464 134.824 120.696 136.168 122.46 136.168ZM133.789 136V129.238H132.529V134.096C132.151 134.6 131.437 135.048 130.653 135.048C129.785 135.048 129.225 134.712 129.225 133.592V129.238H127.965V134.012C127.965 135.44 128.679 136.168 130.121 136.168C131.157 136.168 132.011 135.636 132.529 135.076V136H133.789ZM136.401 128.342C136.849 128.342 137.213 127.978 137.213 127.53C137.213 127.082 136.849 126.732 136.401 126.732C135.967 126.732 135.589 127.082 135.589 127.53C135.589 127.978 135.967 128.342 136.401 128.342ZM137.045 136V129.238H135.785V136H137.045ZM140.313 136V131.296C140.607 130.792 141.461 130.316 142.091 130.316C142.259 130.316 142.399 130.33 142.525 130.358V129.084C141.629 129.084 140.831 129.602 140.313 130.274V129.238H139.053V136H140.313ZM143.447 138.646C143.643 138.702 144.021 138.744 144.231 138.744C145.211 138.73 145.953 138.352 146.387 137.288L149.719 129.238H148.361L146.247 134.544L144.133 129.238H142.789L145.575 136.07L145.183 136.966C144.973 137.47 144.665 137.624 144.203 137.624C144.035 137.624 143.797 137.582 143.643 137.512L143.447 138.646ZM161.52 136L163.648 129.238H162.332L160.792 134.39L159.098 129.238H158.006L156.312 134.39L154.772 129.238H153.456L155.584 136H156.886L158.552 130.806L160.218 136H161.52ZM165.386 128.342C165.834 128.342 166.198 127.978 166.198 127.53C166.198 127.082 165.834 126.732 165.386 126.732C164.952 126.732 164.574 127.082 164.574 127.53C164.574 127.978 164.952 128.342 165.386 128.342ZM166.03 136V129.238H164.77V136H166.03ZM169.297 136V126.662H168.037V136H169.297ZM172.565 136V126.662H171.305V136H172.565ZM184.006 136V131.254C184.006 129.826 183.264 129.07 181.836 129.07C180.786 129.07 179.89 129.644 179.442 130.19V129.238H178.182V136H179.442V131.17C179.806 130.666 180.52 130.19 181.304 130.19C182.172 130.19 182.746 130.554 182.746 131.674V136H184.006ZM188.998 136.168C191.112 136.168 192.414 134.572 192.414 132.612C192.414 130.666 191.112 129.07 188.998 129.07C186.898 129.07 185.582 130.666 185.582 132.612C185.582 134.572 186.898 136.168 188.998 136.168ZM188.998 135.048C187.654 135.048 186.898 133.9 186.898 132.612C186.898 131.338 187.654 130.19 188.998 130.19C190.356 130.19 191.098 131.338 191.098 132.612C191.098 133.9 190.356 135.048 188.998 135.048ZM195.876 136.168C196.534 136.168 196.926 135.986 197.192 135.734L196.87 134.782C196.744 134.922 196.478 135.048 196.184 135.048C195.75 135.048 195.526 134.698 195.526 134.222V130.344H196.898V129.238H195.526V127.39H194.266V129.238H193.146V130.344H194.266V134.502C194.266 135.566 194.812 136.168 195.876 136.168ZM6.44 157V152.436C6.44 150.714 5.194 150.07 3.724 150.07C2.632 150.07 1.708 150.434 0.952 151.176L1.498 152.044C2.1 151.442 2.758 151.148 3.528 151.148C4.494 151.148 5.18 151.652 5.18 152.492V153.612C4.662 153.01 3.878 152.716 2.968 152.716C1.834 152.716 0.616 153.388 0.616 154.928C0.616 156.412 1.848 157.168 2.968 157.168C3.878 157.168 4.648 156.846 5.18 156.258V157H6.44ZM3.444 156.286C2.534 156.286 1.89 155.74 1.89 154.942C1.89 154.144 2.534 153.598 3.444 153.598C4.144 153.598 4.802 153.864 5.18 154.368V155.516C4.802 156.02 4.144 156.286 3.444 156.286ZM10.0272 157V151.344H11.3992V150.238H10.0272V149.79C10.0272 148.978 10.4052 148.558 11.0352 148.558C11.2592 148.558 11.4692 148.614 11.6372 148.712L11.9312 147.774C11.6372 147.606 11.2592 147.522 10.8252 147.522C9.62117 147.522 8.76717 148.334 8.76717 149.79V150.238H7.64717V151.344H8.76717V157H10.0272ZM14.1698 157V151.344H15.5418V150.238H14.1698V149.79C14.1698 148.978 14.5478 148.558 15.1778 148.558C15.4018 148.558 15.6118 148.614 15.7798 148.712L16.0738 147.774C15.7798 147.606 15.4018 147.522 14.9678 147.522C13.7638 147.522 12.9098 148.334 12.9098 149.79V150.238H11.7898V151.344H12.9098V157H14.1698ZM19.8243 157.168C20.9163 157.168 21.8683 156.818 22.5403 156.16L21.9523 155.334C21.4483 155.852 20.6643 156.132 19.9503 156.132C18.5923 156.132 17.7523 155.18 17.6543 154.032H23.0023V153.724C23.0023 151.652 21.7423 150.07 19.7123 150.07C17.7383 150.07 16.3243 151.652 16.3243 153.612C16.3243 155.74 17.8083 157.168 19.8243 157.168ZM21.7703 153.122H17.6403C17.7103 152.198 18.3543 151.106 19.7123 151.106C21.1403 151.106 21.7423 152.226 21.7703 153.122ZM27.6023 157.168C28.8763 157.168 29.6463 156.636 30.1363 155.978L29.2963 155.208C28.8903 155.768 28.3443 156.048 27.6583 156.048C26.3283 156.048 25.4743 155.012 25.4743 153.612C25.4743 152.212 26.3283 151.19 27.6583 151.19C28.3443 151.19 28.8903 151.456 29.2963 152.03L30.1363 151.26C29.6463 150.602 28.8763 150.07 27.6023 150.07C25.5583 150.07 24.1583 151.582 24.1583 153.612C24.1583 155.642 25.5583 157.168 27.6023 157.168ZM33.3856 157.168C34.0436 157.168 34.4356 156.986 34.7016 156.734L34.3796 155.782C34.2536 155.922 33.9876 156.048 33.6936 156.048C33.2596 156.048 33.0356 155.698 33.0356 155.222V151.344H34.4076V150.238H33.0356V148.39H31.7756V150.238H30.6556V151.344H31.7756V155.502C31.7756 156.566 32.3216 157.168 33.3856 157.168ZM39.0763 159.646C39.2723 159.702 39.6503 159.744 39.8603 159.744C40.8403 159.73 41.5823 159.352 42.0163 158.288L45.3483 150.238H43.9903L41.8763 155.544L39.7623 150.238H38.4183L41.2043 157.07L40.8123 157.966C40.6023 158.47 40.2943 158.624 39.8323 158.624C39.6643 158.624 39.4263 158.582 39.2723 158.512L39.0763 159.646ZM49.3673 157.168C51.4813 157.168 52.7833 155.572 52.7833 153.612C52.7833 151.666 51.4813 150.07 49.3673 150.07C47.2673 150.07 45.9513 151.666 45.9513 153.612C45.9513 155.572 47.2673 157.168 49.3673 157.168ZM49.3673 156.048C48.0233 156.048 47.2673 154.9 47.2673 153.612C47.2673 152.338 48.0233 151.19 49.3673 151.19C50.7253 151.19 51.4673 152.338 51.4673 153.612C51.4673 154.9 50.7253 156.048 49.3673 156.048ZM60.207 157V150.238H58.947V155.096C58.569 155.6 57.855 156.048 57.071 156.048C56.203 156.048 55.643 155.712 55.643 154.592V150.238H54.383V155.012C54.383 156.44 55.097 157.168 56.539 157.168C57.575 157.168 58.429 156.636 58.947 156.076V157H60.207ZM63.4633 157V152.296C63.7573 151.792 64.6113 151.316 65.2413 151.316C65.4093 151.316 65.5493 151.33 65.6753 151.358V150.084C64.7793 150.084 63.9813 150.602 63.4633 151.274V150.238H62.2033V157H63.4633ZM73.5672 157.168C74.8412 157.168 75.6112 156.636 76.1012 155.978L75.2612 155.208C74.8552 155.768 74.3092 156.048 73.6232 156.048C72.2932 156.048 71.4392 155.012 71.4392 153.612C71.4392 152.212 72.2932 151.19 73.6232 151.19C74.3092 151.19 74.8552 151.456 75.2612 152.03L76.1012 151.26C75.6112 150.602 74.8412 150.07 73.5672 150.07C71.5232 150.07 70.1232 151.582 70.1232 153.612C70.1232 155.642 71.5232 157.168 73.5672 157.168ZM78.7485 157V152.296C79.0425 151.792 79.8965 151.316 80.5265 151.316C80.6945 151.316 80.8345 151.33 80.9605 151.358V150.084C80.0645 150.084 79.2665 150.602 78.7485 151.274V150.238H77.4885V157H78.7485ZM85.2989 157.168C86.3909 157.168 87.3429 156.818 88.0149 156.16L87.4269 155.334C86.9229 155.852 86.1389 156.132 85.4249 156.132C84.0669 156.132 83.2269 155.18 83.1289 154.032H88.4769V153.724C88.4769 151.652 87.2169 150.07 85.1869 150.07C83.2129 150.07 81.7989 151.652 81.7989 153.612C81.7989 155.74 83.2829 157.168 85.2989 157.168ZM87.2449 153.122H83.1149C83.1849 152.198 83.8289 151.106 85.1869 151.106C86.6149 151.106 87.2169 152.226 87.2449 153.122ZM96.1289 157V147.662H94.8689V151.218C94.3229 150.49 93.5249 150.07 92.6569 150.07C90.8929 150.07 89.6329 151.456 89.6329 153.626C89.6329 155.838 90.8929 157.168 92.6569 157.168C93.5529 157.168 94.3649 156.706 94.8689 156.034V157H96.1289ZM92.9929 156.048C91.7329 156.048 90.9489 155.026 90.9489 153.626C90.9489 152.212 91.7329 151.19 92.9929 151.19C93.7629 151.19 94.5189 151.638 94.8689 152.184V155.068C94.5189 155.614 93.7629 156.048 92.9929 156.048ZM98.7627 149.342C99.2107 149.342 99.5747 148.978 99.5747 148.53C99.5747 148.082 99.2107 147.732 98.7627 147.732C98.3287 147.732 97.9507 148.082 97.9507 148.53C97.9507 148.978 98.3287 149.342 98.7627 149.342ZM99.4067 157V150.238H98.1467V157H99.4067ZM103.276 157.168C103.934 157.168 104.326 156.986 104.592 156.734L104.27 155.782C104.144 155.922 103.878 156.048 103.584 156.048C103.15 156.048 102.926 155.698 102.926 155.222V151.344H104.298V150.238H102.926V148.39H101.666V150.238H100.546V151.344H101.666V155.502C101.666 156.566 102.212 157.168 103.276 157.168ZM111.529 157.168C113.307 157.168 114.259 156.258 114.259 155.096C114.259 153.542 112.859 153.22 111.683 152.954C110.843 152.758 110.115 152.604 110.115 152.03C110.115 151.484 110.647 151.092 111.501 151.092C112.355 151.092 113.111 151.442 113.503 151.918L114.063 151.036C113.489 150.49 112.649 150.07 111.487 150.07C109.835 150.07 108.911 150.994 108.911 152.072C108.911 153.528 110.255 153.836 111.403 154.102C112.271 154.298 113.041 154.48 113.041 155.124C113.041 155.726 112.537 156.16 111.585 156.16C110.675 156.16 109.779 155.698 109.317 155.194L108.715 156.118C109.401 156.818 110.395 157.168 111.529 157.168ZM118.876 157.168C120.15 157.168 120.92 156.636 121.41 155.978L120.57 155.208C120.164 155.768 119.618 156.048 118.932 156.048C117.602 156.048 116.748 155.012 116.748 153.612C116.748 152.212 117.602 151.19 118.932 151.19C119.618 151.19 120.164 151.456 120.57 152.03L121.41 151.26C120.92 150.602 120.15 150.07 118.876 150.07C116.832 150.07 115.432 151.582 115.432 153.612C115.432 155.642 116.832 157.168 118.876 157.168ZM125.793 157.168C127.907 157.168 129.209 155.572 129.209 153.612C129.209 151.666 127.907 150.07 125.793 150.07C123.693 150.07 122.377 151.666 122.377 153.612C122.377 155.572 123.693 157.168 125.793 157.168ZM125.793 156.048C124.449 156.048 123.693 154.9 123.693 153.612C123.693 152.338 124.449 151.19 125.793 151.19C127.151 151.19 127.893 152.338 127.893 153.612C127.893 154.9 127.151 156.048 125.793 156.048ZM132.069 157V152.296C132.363 151.792 133.217 151.316 133.847 151.316C134.015 151.316 134.155 151.33 134.281 151.358V150.084C133.385 150.084 132.587 150.602 132.069 151.274V150.238H130.809V157H132.069ZM138.619 157.168C139.711 157.168 140.663 156.818 141.335 156.16L140.747 155.334C140.243 155.852 139.459 156.132 138.745 156.132C137.387 156.132 136.547 155.18 136.449 154.032H141.797V153.724C141.797 151.652 140.537 150.07 138.507 150.07C136.533 150.07 135.119 151.652 135.119 153.612C135.119 155.74 136.603 157.168 138.619 157.168ZM140.565 153.122H136.435C136.505 152.198 137.149 151.106 138.507 151.106C139.935 151.106 140.537 152.226 140.565 153.122ZM143.935 157.154C144.411 157.154 144.817 156.748 144.817 156.272C144.817 155.796 144.411 155.404 143.935 155.404C143.459 155.404 143.067 155.796 143.067 156.272C143.067 156.748 143.459 157.154 143.935 157.154Z" fill="#3E4C59"/>
<path d="M12.2522 82V79H5.48419V65.992H2.07619V82H12.2522ZM19.6849 82.288C23.5249 82.288 25.8289 79.504 25.8289 76.192C25.8289 72.904 23.5249 70.12 19.6849 70.12C15.8689 70.12 13.5649 72.904 13.5649 76.192C13.5649 79.504 15.8689 82.288 19.6849 82.288ZM19.6849 79.576C17.7889 79.576 16.7329 78.016 16.7329 76.192C16.7329 74.392 17.7889 72.832 19.6849 72.832C21.5809 72.832 22.6609 74.392 22.6609 76.192C22.6609 78.016 21.5809 79.576 19.6849 79.576ZM38.0981 82V74.512C38.0981 71.176 35.6741 70.12 33.0341 70.12C31.2101 70.12 29.3861 70.696 27.9701 71.944L29.1221 73.984C30.1061 73.072 31.2581 72.616 32.5061 72.616C34.0421 72.616 35.0501 73.384 35.0501 74.56V76.12C34.2821 75.208 32.9141 74.704 31.3781 74.704C29.5301 74.704 27.3461 75.736 27.3461 78.448C27.3461 81.04 29.5301 82.288 31.3781 82.288C32.8901 82.288 34.2581 81.736 35.0501 80.8V82H38.0981ZM32.6021 80.224C31.4021 80.224 30.4181 79.6 30.4181 78.52C30.4181 77.392 31.4021 76.768 32.6021 76.768C33.5861 76.768 34.5461 77.104 35.0501 77.776V79.216C34.5461 79.888 33.5861 80.224 32.6021 80.224ZM51.9934 82V73.816C51.9934 71.56 50.7694 70.12 48.2254 70.12C46.3294 70.12 44.9134 71.032 44.1694 71.92V70.408H41.1214V82H44.1694V74.2C44.6734 73.504 45.6094 72.832 46.8094 72.832C48.1054 72.832 48.9454 73.384 48.9454 74.992V82H51.9934Z" fill="#102A43"/>
<path d="M15.13 44.576C24.25 44.576 28.378 36.272 28.378 28.016C28.378 19.76 24.25 11.504 15.13 11.504C5.962 11.504 1.882 19.76 1.882 28.016C1.882 36.272 5.962 44.576 15.13 44.576ZM15.13 38.528C10.522 38.528 8.794 33.92 8.794 28.016C8.794 22.112 10.522 17.552 15.13 17.552C19.69 17.552 21.418 22.112 21.418 28.016C21.418 33.92 19.69 38.528 15.13 38.528ZM46.5756 44V11.984H40.6236L30.5436 22.112L34.4316 26.192L39.7596 20.768V44H46.5756Z" fill="#102A43"/>
</svg>
