<svg width="199" height="163" viewBox="0 0 199 163" fill="none" xmlns="http://www.w3.org/2000/svg">
<path d="M4.718 115V106.894H7.602V105.662H0.42V106.894H3.318V115H4.718ZM14.8574 115V110.226C14.8574 108.798 14.1294 108.07 12.6874 108.07C11.6514 108.07 10.7414 108.644 10.2934 109.19V105.662H9.03339V115H10.2934V110.17C10.6574 109.666 11.3714 109.19 12.1554 109.19C13.0234 109.19 13.5974 109.526 13.5974 110.646V115H14.8574ZM17.4834 107.342C17.9314 107.342 18.2954 106.978 18.2954 106.53C18.2954 106.082 17.9314 105.732 17.4834 105.732C17.0494 105.732 16.6714 106.082 16.6714 106.53C16.6714 106.978 17.0494 107.342 17.4834 107.342ZM18.1274 115V108.238H16.8674V115H18.1274ZM22.361 115.168C24.139 115.168 25.091 114.258 25.091 113.096C25.091 111.542 23.691 111.22 22.515 110.954C21.675 110.758 20.947 110.604 20.947 110.03C20.947 109.484 21.479 109.092 22.333 109.092C23.187 109.092 23.943 109.442 24.335 109.918L24.895 109.036C24.321 108.49 23.481 108.07 22.319 108.07C20.667 108.07 19.743 108.994 19.743 110.072C19.743 111.528 21.087 111.836 22.235 112.102C23.103 112.298 23.873 112.48 23.873 113.124C23.873 113.726 23.369 114.16 22.417 114.16C21.507 114.16 20.611 113.698 20.149 113.194L19.547 114.118C20.233 114.818 21.227 115.168 22.361 115.168ZM30.9092 107.342C31.3572 107.342 31.7212 106.978 31.7212 106.53C31.7212 106.082 31.3572 105.732 30.9092 105.732C30.4752 105.732 30.0972 106.082 30.0972 106.53C30.0972 106.978 30.4752 107.342 30.9092 107.342ZM31.5532 115V108.238H30.2932V115H31.5532ZM39.3847 115V110.254C39.3847 108.826 38.6427 108.07 37.2147 108.07C36.1647 108.07 35.2687 108.644 34.8207 109.19V108.238H33.5607V115H34.8207V110.17C35.1847 109.666 35.8987 109.19 36.6827 109.19C37.5507 109.19 38.1247 109.554 38.1247 110.674V115H39.3847ZM42.949 115V109.344H44.321V108.238H42.949V107.79C42.949 106.978 43.327 106.558 43.957 106.558C44.181 106.558 44.391 106.614 44.559 106.712L44.853 105.774C44.559 105.606 44.181 105.522 43.747 105.522C42.543 105.522 41.689 106.334 41.689 107.79V108.238H40.569V109.344H41.689V115H42.949ZM48.5196 115.168C50.6336 115.168 51.9356 113.572 51.9356 111.612C51.9356 109.666 50.6336 108.07 48.5196 108.07C46.4196 108.07 45.1036 109.666 45.1036 111.612C45.1036 113.572 46.4196 115.168 48.5196 115.168ZM48.5196 114.048C47.1756 114.048 46.4196 112.9 46.4196 111.612C46.4196 110.338 47.1756 109.19 48.5196 109.19C49.8776 109.19 50.6196 110.338 50.6196 111.612C50.6196 112.9 49.8776 114.048 48.5196 114.048ZM54.7953 115V110.296C55.0893 109.792 55.9433 109.316 56.5733 109.316C56.7413 109.316 56.8813 109.33 57.0073 109.358V108.084C56.1113 108.084 55.3133 108.602 54.7953 109.274V108.238H53.5353V115H54.7953ZM67.7438 115V110.114C67.7438 108.756 67.0718 108.07 65.8258 108.07C64.8318 108.07 63.9358 108.7 63.5438 109.33C63.3338 108.602 62.7318 108.07 61.7098 108.07C60.7018 108.07 59.8058 108.77 59.5258 109.19V108.238H58.2658V115H59.5258V110.17C59.8618 109.68 60.5198 109.19 61.1778 109.19C62.0318 109.19 62.3678 109.708 62.3678 110.492V115H63.6278V110.156C63.9498 109.666 64.6218 109.19 65.3078 109.19C66.1338 109.19 66.4838 109.708 66.4838 110.492V115H67.7438ZM75.1822 115V110.436C75.1822 108.714 73.9362 108.07 72.4662 108.07C71.3742 108.07 70.4502 108.434 69.6942 109.176L70.2402 110.044C70.8422 109.442 71.5002 109.148 72.2702 109.148C73.2362 109.148 73.9222 109.652 73.9222 110.492V111.612C73.4042 111.01 72.6202 110.716 71.7102 110.716C70.5762 110.716 69.3582 111.388 69.3582 112.928C69.3582 114.412 70.5902 115.168 71.7102 115.168C72.6202 115.168 73.3902 114.846 73.9222 114.258V115H75.1822ZM72.1862 114.286C71.2762 114.286 70.6322 113.74 70.6322 112.942C70.6322 112.144 71.2762 111.598 72.1862 111.598C72.8862 111.598 73.5442 111.864 73.9222 112.368V113.516C73.5442 114.02 72.8862 114.286 72.1862 114.286ZM79.0634 115.168C79.7214 115.168 80.1134 114.986 80.3794 114.734L80.0574 113.782C79.9314 113.922 79.6654 114.048 79.3714 114.048C78.9374 114.048 78.7134 113.698 78.7134 113.222V109.344H80.0854V108.238H78.7134V106.39H77.4534V108.238H76.3334V109.344H77.4534V113.502C77.4534 114.566 77.9994 115.168 79.0634 115.168ZM82.0967 107.342C82.5447 107.342 82.9087 106.978 82.9087 106.53C82.9087 106.082 82.5447 105.732 82.0967 105.732C81.6627 105.732 81.2847 106.082 81.2847 106.53C81.2847 106.978 81.6627 107.342 82.0967 107.342ZM82.7407 115V108.238H81.4807V115H82.7407ZM87.7442 115.168C89.8582 115.168 91.1602 113.572 91.1602 111.612C91.1602 109.666 89.8582 108.07 87.7442 108.07C85.6442 108.07 84.3282 109.666 84.3282 111.612C84.3282 113.572 85.6442 115.168 87.7442 115.168ZM87.7442 114.048C86.4002 114.048 85.6442 112.9 85.6442 111.612C85.6442 110.338 86.4002 109.19 87.7442 109.19C89.1022 109.19 89.8442 110.338 89.8442 111.612C89.8442 112.9 89.1022 114.048 87.7442 114.048ZM98.584 115V110.254C98.584 108.826 97.842 108.07 96.414 108.07C95.364 108.07 94.468 108.644 94.02 109.19V108.238H92.76V115H94.02V110.17C94.384 109.666 95.098 109.19 95.882 109.19C96.75 109.19 97.324 109.554 97.324 110.674V115H98.584ZM111.358 115L113.486 108.238H112.17L110.63 113.39L108.936 108.238H107.844L106.15 113.39L104.61 108.238H103.294L105.422 115H106.724L108.39 109.806L110.056 115H111.358ZM115.224 107.342C115.672 107.342 116.036 106.978 116.036 106.53C116.036 106.082 115.672 105.732 115.224 105.732C114.79 105.732 114.412 106.082 114.412 106.53C114.412 106.978 114.79 107.342 115.224 107.342ZM115.868 115V108.238H114.608V115H115.868ZM119.135 115V105.662H117.875V115H119.135ZM122.403 115V105.662H121.143V115H122.403ZM129.28 113.068V110.198C129.616 109.652 130.386 109.19 131.156 109.19C132.416 109.19 133.2 110.212 133.2 111.626C133.2 113.04 132.416 114.048 131.156 114.048C130.386 114.048 129.616 113.614 129.28 113.068ZM129.28 115V114.034C129.784 114.706 130.582 115.168 131.492 115.168C133.242 115.168 134.502 113.838 134.502 111.626C134.502 109.456 133.256 108.07 131.492 108.07C130.61 108.07 129.812 108.49 129.28 109.218V105.662H128.02V115H129.28ZM139.193 115.168C140.285 115.168 141.237 114.818 141.909 114.16L141.321 113.334C140.817 113.852 140.033 114.132 139.319 114.132C137.961 114.132 137.121 113.18 137.023 112.032H142.371V111.724C142.371 109.652 141.111 108.07 139.081 108.07C137.107 108.07 135.693 109.652 135.693 111.612C135.693 113.74 137.177 115.168 139.193 115.168ZM141.139 111.122H137.009C137.079 110.198 137.723 109.106 139.081 109.106C140.509 109.106 141.111 110.226 141.139 111.122ZM153.381 115V108.238H152.121V113.096C151.743 113.6 151.029 114.048 150.245 114.048C149.377 114.048 148.817 113.712 148.817 112.592V108.238H147.557V113.012C147.557 114.44 148.271 115.168 149.713 115.168C150.749 115.168 151.603 114.636 152.121 114.076V115H153.381ZM157.603 115.168C159.381 115.168 160.333 114.258 160.333 113.096C160.333 111.542 158.933 111.22 157.757 110.954C156.917 110.758 156.189 110.604 156.189 110.03C156.189 109.484 156.721 109.092 157.575 109.092C158.429 109.092 159.185 109.442 159.577 109.918L160.137 109.036C159.563 108.49 158.723 108.07 157.561 108.07C155.909 108.07 154.985 108.994 154.985 110.072C154.985 111.528 156.329 111.836 157.477 112.102C158.345 112.298 159.115 112.48 159.115 113.124C159.115 113.726 158.611 114.16 157.659 114.16C156.749 114.16 155.853 113.698 155.391 113.194L154.789 114.118C155.475 114.818 156.469 115.168 157.603 115.168ZM165.006 115.168C166.098 115.168 167.05 114.818 167.722 114.16L167.134 113.334C166.63 113.852 165.846 114.132 165.132 114.132C163.774 114.132 162.934 113.18 162.836 112.032H168.184V111.724C168.184 109.652 166.924 108.07 164.894 108.07C162.92 108.07 161.506 109.652 161.506 111.612C161.506 113.74 162.99 115.168 165.006 115.168ZM166.952 111.122H162.822C162.892 110.198 163.536 109.106 164.894 109.106C166.322 109.106 166.924 110.226 166.952 111.122ZM175.836 115V105.662H174.576V109.218C174.03 108.49 173.232 108.07 172.364 108.07C170.6 108.07 169.34 109.456 169.34 111.626C169.34 113.838 170.6 115.168 172.364 115.168C173.26 115.168 174.072 114.706 174.576 114.034V115H175.836ZM172.7 114.048C171.44 114.048 170.656 113.026 170.656 111.626C170.656 110.212 171.44 109.19 172.7 109.19C173.47 109.19 174.226 109.638 174.576 110.184V113.068C174.226 113.614 173.47 114.048 172.7 114.048ZM183.325 115.168C183.983 115.168 184.375 114.986 184.641 114.734L184.319 113.782C184.193 113.922 183.927 114.048 183.633 114.048C183.199 114.048 182.975 113.698 182.975 113.222V109.344H184.347V108.238H182.975V106.39H181.715V108.238H180.595V109.344H181.715V113.502C181.715 114.566 182.261 115.168 183.325 115.168ZM188.738 115.168C190.852 115.168 192.154 113.572 192.154 111.612C192.154 109.666 190.852 108.07 188.738 108.07C186.638 108.07 185.322 109.666 185.322 111.612C185.322 113.572 186.638 115.168 188.738 115.168ZM188.738 114.048C187.394 114.048 186.638 112.9 186.638 111.612C186.638 110.338 187.394 109.19 188.738 109.19C190.096 109.19 190.838 110.338 190.838 111.612C190.838 112.9 190.096 114.048 188.738 114.048ZM4.48 136.168C6.244 136.168 7.49 134.824 7.49 132.612C7.49 130.4 6.244 129.07 4.48 129.07C3.57 129.07 2.758 129.532 2.268 130.204V129.238H1.008V138.576H2.268V135.02C2.814 135.762 3.598 136.168 4.48 136.168ZM4.144 135.048C3.374 135.048 2.604 134.586 2.268 134.054V131.184C2.604 130.638 3.374 130.19 4.144 130.19C5.404 130.19 6.174 131.212 6.174 132.612C6.174 134.026 5.404 135.048 4.144 135.048ZM14.8847 136V129.238H13.6247V134.096C13.2467 134.6 12.5327 135.048 11.7487 135.048C10.8807 135.048 10.3207 134.712 10.3207 133.592V129.238H9.06073V134.012C9.06073 135.44 9.77473 136.168 11.2167 136.168C12.2527 136.168 13.1067 135.636 13.6247 135.076V136H14.8847ZM18.141 136V126.662H16.881V136H18.141ZM21.4086 136V126.662H20.1486V136H21.4086ZM32.4576 136V131.436C32.4576 129.714 31.2116 129.07 29.7416 129.07C28.6496 129.07 27.7256 129.434 26.9696 130.176L27.5156 131.044C28.1176 130.442 28.7756 130.148 29.5456 130.148C30.5116 130.148 31.1976 130.652 31.1976 131.492V132.612C30.6796 132.01 29.8956 131.716 28.9856 131.716C27.8516 131.716 26.6336 132.388 26.6336 133.928C26.6336 135.412 27.8656 136.168 28.9856 136.168C29.8956 136.168 30.6656 135.846 31.1976 135.258V136H32.4576ZM29.4616 135.286C28.5516 135.286 27.9076 134.74 27.9076 133.942C27.9076 133.144 28.5516 132.598 29.4616 132.598C30.1616 132.598 30.8196 132.864 31.1976 133.368V134.516C30.8196 135.02 30.1616 135.286 29.4616 135.286ZM41.1101 136.168C42.3841 136.168 43.1541 135.636 43.6441 134.978L42.8041 134.208C42.3981 134.768 41.8521 135.048 41.1661 135.048C39.8361 135.048 38.9821 134.012 38.9821 132.612C38.9821 131.212 39.8361 130.19 41.1661 130.19C41.8521 130.19 42.3981 130.456 42.8041 131.03L43.6441 130.26C43.1541 129.602 42.3841 129.07 41.1101 129.07C39.0661 129.07 37.6661 130.582 37.6661 132.612C37.6661 134.642 39.0661 136.168 41.1101 136.168ZM46.2914 136V131.296C46.5854 130.792 47.4394 130.316 48.0694 130.316C48.2374 130.316 48.3774 130.33 48.5034 130.358V129.084C47.6074 129.084 46.8094 129.602 46.2914 130.274V129.238H45.0314V136H46.2914ZM52.8419 136.168C53.9339 136.168 54.8859 135.818 55.5579 135.16L54.9699 134.334C54.4659 134.852 53.6819 135.132 52.9679 135.132C51.6099 135.132 50.7699 134.18 50.6719 133.032H56.0199V132.724C56.0199 130.652 54.7599 129.07 52.7299 129.07C50.7559 129.07 49.3419 130.652 49.3419 132.612C49.3419 134.74 50.8259 136.168 52.8419 136.168ZM54.7879 132.122H50.6579C50.7279 131.198 51.3719 130.106 52.7299 130.106C54.1579 130.106 54.7599 131.226 54.7879 132.122ZM63.6719 136V126.662H62.4119V130.218C61.8659 129.49 61.0679 129.07 60.1999 129.07C58.4359 129.07 57.1759 130.456 57.1759 132.626C57.1759 134.838 58.4359 136.168 60.1999 136.168C61.0959 136.168 61.9079 135.706 62.4119 135.034V136H63.6719ZM60.5359 135.048C59.2759 135.048 58.4919 134.026 58.4919 132.626C58.4919 131.212 59.2759 130.19 60.5359 130.19C61.3059 130.19 62.0619 130.638 62.4119 131.184V134.068C62.0619 134.614 61.3059 135.048 60.5359 135.048ZM66.3056 128.342C66.7536 128.342 67.1176 127.978 67.1176 127.53C67.1176 127.082 66.7536 126.732 66.3056 126.732C65.8716 126.732 65.4936 127.082 65.4936 127.53C65.4936 127.978 65.8716 128.342 66.3056 128.342ZM66.9496 136V129.238H65.6896V136H66.9496ZM70.8192 136.168C71.4772 136.168 71.8692 135.986 72.1352 135.734L71.8132 134.782C71.6872 134.922 71.4212 135.048 71.1272 135.048C70.6932 135.048 70.4692 134.698 70.4692 134.222V130.344H71.8412V129.238H70.4692V127.39H69.2092V129.238H68.0892V130.344H69.2092V134.502C69.2092 135.566 69.7552 136.168 70.8192 136.168ZM78.1059 136V131.296C78.3999 130.792 79.2539 130.316 79.8839 130.316C80.0519 130.316 80.1919 130.33 80.3179 130.358V129.084C79.4219 129.084 78.6239 129.602 78.1059 130.274V129.238H76.8459V136H78.1059ZM84.6564 136.168C85.7484 136.168 86.7004 135.818 87.3724 135.16L86.7844 134.334C86.2804 134.852 85.4964 135.132 84.7824 135.132C83.4244 135.132 82.5844 134.18 82.4864 133.032H87.8344V132.724C87.8344 130.652 86.5744 129.07 84.5444 129.07C82.5704 129.07 81.1564 130.652 81.1564 132.612C81.1564 134.74 82.6404 136.168 84.6564 136.168ZM86.6024 132.122H82.4724C82.5424 131.198 83.1864 130.106 84.5444 130.106C85.9724 130.106 86.5744 131.226 86.6024 132.122ZM92.8823 136.168C94.6463 136.168 95.8923 134.824 95.8923 132.612C95.8923 130.4 94.6463 129.07 92.8823 129.07C91.9723 129.07 91.1603 129.532 90.6703 130.204V129.238H89.4103V138.576H90.6703V135.02C91.2163 135.762 92.0003 136.168 92.8823 136.168ZM92.5463 135.048C91.7763 135.048 91.0063 134.586 90.6703 134.054V131.184C91.0063 130.638 91.7763 130.19 92.5463 130.19C93.8063 130.19 94.5763 131.212 94.5763 132.612C94.5763 134.026 93.8063 135.048 92.5463 135.048ZM100.459 136.168C102.573 136.168 103.875 134.572 103.875 132.612C103.875 130.666 102.573 129.07 100.459 129.07C98.3591 129.07 97.0431 130.666 97.0431 132.612C97.0431 134.572 98.3591 136.168 100.459 136.168ZM100.459 135.048C99.1151 135.048 98.3591 133.9 98.3591 132.612C98.3591 131.338 99.1151 130.19 100.459 130.19C101.817 130.19 102.559 131.338 102.559 132.612C102.559 133.9 101.817 135.048 100.459 135.048ZM106.735 136V131.296C107.029 130.792 107.883 130.316 108.513 130.316C108.681 130.316 108.821 130.33 108.947 130.358V129.084C108.051 129.084 107.253 129.602 106.735 130.274V129.238H105.475V136H106.735ZM112.067 136.168C112.725 136.168 113.117 135.986 113.383 135.734L113.061 134.782C112.935 134.922 112.669 135.048 112.375 135.048C111.941 135.048 111.717 134.698 111.717 134.222V130.344H113.089V129.238H111.717V127.39H110.457V129.238H109.337V130.344H110.457V134.502C110.457 135.566 111.003 136.168 112.067 136.168ZM115.129 136.154C115.605 136.154 116.011 135.748 116.011 135.272C116.011 134.796 115.605 134.404 115.129 134.404C114.653 134.404 114.261 134.796 114.261 135.272C114.261 135.748 114.653 136.154 115.129 136.154ZM125.546 136V132.094L129.186 126.662H127.562L124.846 130.834L122.102 126.662H120.492L124.146 132.094V136H125.546ZM131.508 136.168C133.622 136.168 134.924 134.572 134.924 132.612C134.924 130.666 133.622 129.07 131.508 129.07C129.408 129.07 128.092 130.666 128.092 132.612C128.092 134.572 129.408 136.168 131.508 136.168ZM131.508 135.048C130.164 135.048 129.408 133.9 129.408 132.612C129.408 131.338 130.164 130.19 131.508 130.19C132.866 130.19 133.608 131.338 133.608 132.612C133.608 133.9 132.866 135.048 131.508 135.048ZM142.348 136V129.238H141.088V134.096C140.71 134.6 139.996 135.048 139.212 135.048C138.344 135.048 137.784 134.712 137.784 133.592V129.238H136.524V134.012C136.524 135.44 137.238 136.168 138.68 136.168C139.716 136.168 140.57 135.636 141.088 135.076V136H142.348ZM145.604 136V131.296C145.898 130.792 146.752 130.316 147.382 130.316C147.55 130.316 147.69 130.33 147.816 130.358V129.084C146.92 129.084 146.122 129.602 145.604 130.274V129.238H144.344V136H145.604ZM155.764 136.168C156.856 136.168 157.808 135.818 158.48 135.16L157.892 134.334C157.388 134.852 156.604 135.132 155.89 135.132C154.532 135.132 153.692 134.18 153.594 133.032H158.942V132.724C158.942 130.652 157.682 129.07 155.652 129.07C153.678 129.07 152.264 130.652 152.264 132.612C152.264 134.74 153.748 136.168 155.764 136.168ZM157.71 132.122H153.58C153.65 131.198 154.294 130.106 155.652 130.106C157.08 130.106 157.682 131.226 157.71 132.122ZM166.342 136V131.254C166.342 129.826 165.6 129.07 164.172 129.07C163.122 129.07 162.226 129.644 161.778 130.19V129.238H160.518V136H161.778V131.17C162.142 130.666 162.856 130.19 163.64 130.19C164.508 130.19 165.082 130.554 165.082 131.674V136H166.342ZM171.236 135.048C169.976 135.048 169.206 134.026 169.206 132.612C169.206 131.212 169.976 130.19 171.236 130.19C171.992 130.19 172.776 130.638 173.112 131.184V134.054C172.776 134.586 171.992 135.048 171.236 135.048ZM170.886 136.168C171.782 136.168 172.566 135.762 173.112 135.02V138.576H174.372V129.238H173.112V130.204C172.622 129.532 171.81 129.07 170.886 129.07C169.122 129.07 167.89 130.4 167.89 132.612C167.89 134.824 169.122 136.168 170.886 136.168ZM182.215 136V129.238H180.955V134.096C180.577 134.6 179.863 135.048 179.079 135.048C178.211 135.048 177.651 134.712 177.651 133.592V129.238H176.391V134.012C176.391 135.44 177.105 136.168 178.547 136.168C179.583 136.168 180.437 135.636 180.955 135.076V136H182.215ZM184.827 128.342C185.275 128.342 185.639 127.978 185.639 127.53C185.639 127.082 185.275 126.732 184.827 126.732C184.393 126.732 184.015 127.082 184.015 127.53C184.015 127.978 184.393 128.342 184.827 128.342ZM185.471 136V129.238H184.211V136H185.471ZM188.739 136V131.296C189.033 130.792 189.887 130.316 190.517 130.316C190.685 130.316 190.825 130.33 190.951 130.358V129.084C190.055 129.084 189.257 129.602 188.739 130.274V129.238H187.479V136H188.739ZM191.873 138.646C192.069 138.702 192.447 138.744 192.657 138.744C193.637 138.73 194.379 138.352 194.813 137.288L198.145 129.238H196.787L194.673 134.544L192.559 129.238H191.215L194.001 136.07L193.609 136.966C193.399 137.47 193.091 137.624 192.629 137.624C192.461 137.624 192.223 137.582 192.069 137.512L191.873 138.646ZM8.708 157L10.766 150.238H8.918L7.658 154.788L6.174 150.238H4.592L3.108 154.788L1.848 150.238H0L2.058 157H3.962L5.39 152.394L6.818 157H8.708ZM12.5238 149.51C13.1118 149.51 13.5878 149.034 13.5878 148.446C13.5878 147.858 13.1118 147.396 12.5238 147.396C11.9498 147.396 11.4598 147.858 11.4598 148.446C11.4598 149.034 11.9498 149.51 12.5238 149.51ZM13.4198 157V150.238H11.6418V157H13.4198ZM16.9608 157V147.662H15.1828V157H16.9608ZM20.5018 157V147.662H18.7238V157H20.5018ZM32.1888 157V152.226C32.1888 150.91 31.4748 150.07 29.9908 150.07C28.8848 150.07 28.0588 150.602 27.6248 151.12V150.238H25.8468V157H27.6248V152.45C27.9188 152.044 28.4648 151.652 29.1648 151.652C29.9208 151.652 30.4108 151.974 30.4108 152.912V157H32.1888ZM37.0903 157.168C39.3303 157.168 40.6743 155.544 40.6743 153.612C40.6743 151.694 39.3303 150.07 37.0903 150.07C34.8643 150.07 33.5203 151.694 33.5203 153.612C33.5203 155.544 34.8643 157.168 37.0903 157.168ZM37.0903 155.586C35.9843 155.586 35.3683 154.676 35.3683 153.612C35.3683 152.562 35.9843 151.652 37.0903 151.652C38.1963 151.652 38.8263 152.562 38.8263 153.612C38.8263 154.676 38.1963 155.586 37.0903 155.586ZM44.2613 157.168C45.0033 157.168 45.4793 156.972 45.7453 156.734L45.3673 155.39C45.2693 155.488 45.0173 155.586 44.7513 155.586C44.3593 155.586 44.1353 155.264 44.1353 154.844V151.792H45.5073V150.238H44.1353V148.39H42.3433V150.238H41.2233V151.792H42.3433V155.32C42.3433 156.524 43.0153 157.168 44.2613 157.168ZM56.1438 157V152.632C56.1438 150.686 54.7298 150.07 53.1898 150.07C52.1258 150.07 51.0618 150.406 50.2358 151.134L50.9078 152.324C51.4818 151.792 52.1538 151.526 52.8818 151.526C53.7778 151.526 54.3658 151.974 54.3658 152.66V153.57C53.9178 153.038 53.1198 152.744 52.2238 152.744C51.1458 152.744 49.8718 153.346 49.8718 154.928C49.8718 156.44 51.1458 157.168 52.2238 157.168C53.1058 157.168 53.9038 156.846 54.3658 156.3V157H56.1438ZM52.9378 155.964C52.2378 155.964 51.6638 155.6 51.6638 154.97C51.6638 154.312 52.2378 153.948 52.9378 153.948C53.5118 153.948 54.0718 154.144 54.3658 154.536V155.376C54.0718 155.768 53.5118 155.964 52.9378 155.964ZM60.0914 157V151.792H61.4634V150.238H60.0914V149.874C60.0914 149.244 60.4414 148.922 60.9314 148.922C61.2534 148.922 61.4914 149.02 61.6734 149.202L62.3454 148.152C61.9114 147.69 61.2254 147.522 60.5814 147.522C59.2234 147.522 58.2994 148.432 58.2994 149.874V150.238H57.1794V151.792H58.2994V157H60.0914ZM64.6715 157V151.792H66.0435V150.238H64.6715V149.874C64.6715 149.244 65.0215 148.922 65.5115 148.922C65.8335 148.922 66.0715 149.02 66.2535 149.202L66.9255 148.152C66.4915 147.69 65.8055 147.522 65.1615 147.522C63.8035 147.522 62.8795 148.432 62.8795 149.874V150.238H61.7595V151.792H62.8795V157H64.6715ZM70.2455 157.168C71.2955 157.168 72.3595 156.846 73.0315 156.23L72.2475 155.082C71.8135 155.502 71.0155 155.754 70.4415 155.754C69.2935 155.754 68.6075 155.04 68.4955 154.186H73.5215V153.794C73.5215 151.582 72.1495 150.07 70.1335 150.07C68.0755 150.07 66.6335 151.652 66.6335 153.612C66.6335 155.782 68.1875 157.168 70.2455 157.168ZM71.7995 152.982H68.4675C68.5515 152.31 69.0275 151.484 70.1335 151.484C71.3095 151.484 71.7575 152.338 71.7995 152.982ZM77.9558 157.168C79.3418 157.168 80.1818 156.566 80.6298 155.936L79.4678 154.858C79.1458 155.306 78.6558 155.586 78.0398 155.586C76.9618 155.586 76.2058 154.788 76.2058 153.612C76.2058 152.436 76.9618 151.652 78.0398 151.652C78.6558 151.652 79.1458 151.904 79.4678 152.38L80.6298 151.288C80.1818 150.672 79.3418 150.07 77.9558 150.07C75.8698 150.07 74.3718 151.54 74.3718 153.612C74.3718 155.698 75.8698 157.168 77.9558 157.168ZM84.0602 157.168C84.8022 157.168 85.2782 156.972 85.5442 156.734L85.1662 155.39C85.0682 155.488 84.8162 155.586 84.5502 155.586C84.1582 155.586 83.9342 155.264 83.9342 154.844V151.792H85.3062V150.238H83.9342V148.39H82.1422V150.238H81.0222V151.792H82.1422V155.32C82.1422 156.524 82.8142 157.168 84.0602 157.168ZM89.922 159.646C90.118 159.702 90.496 159.744 90.706 159.744C91.686 159.73 92.428 159.352 92.862 158.288L96.194 150.238H94.836L92.722 155.544L90.608 150.238H89.264L92.05 157.07L91.658 157.966C91.448 158.47 91.14 158.624 90.678 158.624C90.51 158.624 90.272 158.582 90.118 158.512L89.922 159.646ZM100.213 157.168C102.327 157.168 103.629 155.572 103.629 153.612C103.629 151.666 102.327 150.07 100.213 150.07C98.113 150.07 96.797 151.666 96.797 153.612C96.797 155.572 98.113 157.168 100.213 157.168ZM100.213 156.048C98.869 156.048 98.113 154.9 98.113 153.612C98.113 152.338 98.869 151.19 100.213 151.19C101.571 151.19 102.313 152.338 102.313 153.612C102.313 154.9 101.571 156.048 100.213 156.048ZM111.053 157V150.238H109.793V155.096C109.415 155.6 108.701 156.048 107.917 156.048C107.049 156.048 106.489 155.712 106.489 154.592V150.238H105.229V155.012C105.229 156.44 105.943 157.168 107.385 157.168C108.421 157.168 109.275 156.636 109.793 156.076V157H111.053ZM114.309 157V152.296C114.603 151.792 115.457 151.316 116.087 151.316C116.255 151.316 116.395 151.33 116.521 151.358V150.084C115.625 150.084 114.827 150.602 114.309 151.274V150.238H113.049V157H114.309ZM124.413 157.168C125.799 157.168 126.639 156.566 127.087 155.936L125.925 154.858C125.603 155.306 125.113 155.586 124.497 155.586C123.419 155.586 122.663 154.788 122.663 153.612C122.663 152.436 123.419 151.652 124.497 151.652C125.113 151.652 125.603 151.904 125.925 152.38L127.087 151.288C126.639 150.672 125.799 150.07 124.413 150.07C122.327 150.07 120.829 151.54 120.829 153.612C120.829 155.698 122.327 157.168 124.413 157.168ZM130.027 157V152.534C130.321 152.1 131.105 151.764 131.693 151.764C131.889 151.764 132.057 151.778 132.183 151.806V150.07C131.343 150.07 130.503 150.56 130.027 151.162V150.238H128.249V157H130.027ZM136.472 157.168C137.522 157.168 138.586 156.846 139.258 156.23L138.474 155.082C138.04 155.502 137.242 155.754 136.668 155.754C135.52 155.754 134.834 155.04 134.722 154.186H139.748V153.794C139.748 151.582 138.376 150.07 136.36 150.07C134.302 150.07 132.86 151.652 132.86 153.612C132.86 155.782 134.414 157.168 136.472 157.168ZM138.026 152.982H134.694C134.778 152.31 135.254 151.484 136.36 151.484C137.536 151.484 137.984 152.338 138.026 152.982ZM147.472 157V147.662H145.68V151.106C145.148 150.42 144.392 150.07 143.594 150.07C141.872 150.07 140.598 151.414 140.598 153.626C140.598 155.88 141.886 157.168 143.594 157.168C144.406 157.168 145.148 156.804 145.68 156.132V157H147.472ZM144.14 155.586C143.132 155.586 142.432 154.788 142.432 153.626C142.432 152.45 143.132 151.652 144.14 151.652C144.742 151.652 145.386 151.974 145.68 152.422V154.816C145.386 155.264 144.742 155.586 144.14 155.586ZM150.118 149.51C150.706 149.51 151.182 149.034 151.182 148.446C151.182 147.858 150.706 147.396 150.118 147.396C149.544 147.396 149.054 147.858 149.054 148.446C149.054 149.034 149.544 149.51 150.118 149.51ZM151.014 157V150.238H149.236V157H151.014ZM155.045 157.168C155.787 157.168 156.263 156.972 156.529 156.734L156.151 155.39C156.053 155.488 155.801 155.586 155.535 155.586C155.143 155.586 154.919 155.264 154.919 154.844V151.792H156.291V150.238H154.919V148.39H153.127V150.238H152.007V151.792H153.127V155.32C153.127 156.524 153.799 157.168 155.045 157.168ZM163.525 157.168C165.401 157.168 166.451 156.23 166.451 154.998C166.451 152.268 162.447 153.108 162.447 152.1C162.447 151.722 162.867 151.428 163.511 151.428C164.337 151.428 165.107 151.778 165.513 152.212L166.227 150.994C165.555 150.462 164.645 150.07 163.497 150.07C161.719 150.07 160.725 151.064 160.725 152.198C160.725 154.858 164.743 153.948 164.743 155.068C164.743 155.488 164.379 155.796 163.609 155.796C162.769 155.796 161.761 155.334 161.271 154.872L160.501 156.118C161.215 156.776 162.349 157.168 163.525 157.168ZM170.911 157.168C172.297 157.168 173.137 156.566 173.585 155.936L172.423 154.858C172.101 155.306 171.611 155.586 170.995 155.586C169.917 155.586 169.161 154.788 169.161 153.612C169.161 152.436 169.917 151.652 170.995 151.652C171.611 151.652 172.101 151.904 172.423 152.38L173.585 151.288C173.137 150.672 172.297 150.07 170.911 150.07C168.825 150.07 167.327 151.54 167.327 153.612C167.327 155.698 168.825 157.168 170.911 157.168ZM177.883 157.168C180.123 157.168 181.467 155.544 181.467 153.612C181.467 151.694 180.123 150.07 177.883 150.07C175.657 150.07 174.313 151.694 174.313 153.612C174.313 155.544 175.657 157.168 177.883 157.168ZM177.883 155.586C176.777 155.586 176.161 154.676 176.161 153.612C176.161 152.562 176.777 151.652 177.883 151.652C178.989 151.652 179.619 152.562 179.619 153.612C179.619 154.676 178.989 155.586 177.883 155.586ZM184.564 157V152.534C184.858 152.1 185.642 151.764 186.23 151.764C186.426 151.764 186.594 151.778 186.72 151.806V150.07C185.88 150.07 185.04 150.56 184.564 151.162V150.238H182.786V157H184.564ZM191.009 157.168C192.059 157.168 193.123 156.846 193.795 156.23L193.011 155.082C192.577 155.502 191.779 155.754 191.205 155.754C190.057 155.754 189.371 155.04 189.259 154.186H194.285V153.794C194.285 151.582 192.913 150.07 190.897 150.07C188.839 150.07 187.397 151.652 187.397 153.612C187.397 155.782 188.951 157.168 191.009 157.168ZM192.563 152.982H189.231C189.315 152.31 189.791 151.484 190.897 151.484C192.073 151.484 192.521 152.338 192.563 152.982ZM196.425 157.154C197.041 157.154 197.559 156.636 197.559 156.02C197.559 155.404 197.041 154.886 196.425 154.886C195.809 154.886 195.291 155.404 195.291 156.02C195.291 156.636 195.809 157.154 196.425 157.154Z" fill="#3E4C59"/>
<path d="M5.15997 82V76.312H9.23997C12.696 76.312 14.616 73.936 14.616 71.152C14.616 68.344 12.72 65.992 9.23997 65.992H1.75197V82H5.15997ZM8.78397 73.312H5.15997V68.992H8.78397C10.128 68.992 11.136 69.808 11.136 71.152C11.136 72.472 10.128 73.312 8.78397 73.312ZM19.7045 82V74.344C20.2085 73.6 21.5525 73.024 22.5605 73.024C22.8965 73.024 23.1845 73.048 23.4005 73.096V70.12C21.9605 70.12 20.5205 70.96 19.7045 71.992V70.408H16.6565V82H19.7045ZM30.681 82.288C34.521 82.288 36.825 79.504 36.825 76.192C36.825 72.904 34.521 70.12 30.681 70.12C26.865 70.12 24.561 72.904 24.561 76.192C24.561 79.504 26.865 82.288 30.681 82.288ZM30.681 79.576C28.785 79.576 27.729 78.016 27.729 76.192C27.729 74.392 28.785 72.832 30.681 72.832C32.577 72.832 33.657 74.392 33.657 76.192C33.657 78.016 32.577 79.576 30.681 79.576ZM42.8302 82V73.072H45.1822V70.408H42.8302V69.784C42.8302 68.704 43.4302 68.152 44.2702 68.152C44.8222 68.152 45.2302 68.32 45.5422 68.632L46.6942 66.832C45.9502 66.04 44.7742 65.752 43.6702 65.752C41.3422 65.752 39.7582 67.312 39.7582 69.784V70.408H37.8382V73.072H39.7582V82H42.8302ZM48.4498 69.16C49.4578 69.16 50.2738 68.344 50.2738 67.336C50.2738 66.328 49.4578 65.536 48.4498 65.536C47.4658 65.536 46.6258 66.328 46.6258 67.336C46.6258 68.344 47.4658 69.16 48.4498 69.16ZM49.9858 82V70.408H46.9378V82H49.9858ZM56.0561 82V65.992H53.0081V82H56.0561ZM64.5264 82.288C66.3264 82.288 68.1504 81.736 69.3024 80.68L67.9584 78.712C67.2144 79.432 65.8464 79.864 64.8624 79.864C62.8944 79.864 61.7184 78.64 61.5264 77.176H70.1424V76.504C70.1424 72.712 67.7904 70.12 64.3344 70.12C60.8064 70.12 58.3344 72.832 58.3344 76.192C58.3344 79.912 60.9984 82.288 64.5264 82.288ZM67.1904 75.112H61.4784C61.6224 73.96 62.4384 72.544 64.3344 72.544C66.3504 72.544 67.1184 74.008 67.1904 75.112Z" fill="#102A43"/>
<path d="M15.1066 44.576C24.2266 44.576 28.3546 36.272 28.3546 28.016C28.3546 19.76 24.2266 11.504 15.1066 11.504C5.93856 11.504 1.85856 19.76 1.85856 28.016C1.85856 36.272 5.93856 44.576 15.1066 44.576ZM15.1066 38.528C10.4986 38.528 8.77056 33.92 8.77056 28.016C8.77056 22.112 10.4986 17.552 15.1066 17.552C19.6666 17.552 21.3946 22.112 21.3946 28.016C21.3946 33.92 19.6666 38.528 15.1066 38.528ZM56.3442 44V38H43.2882C51.5922 31.952 56.1042 27.2 56.1042 21.728C56.1042 15.344 50.6802 11.504 43.8642 11.504C39.4002 11.504 34.6482 13.136 31.5282 16.736L35.4162 21.248C37.5762 18.992 40.3602 17.552 44.0082 17.552C46.6482 17.552 49.1922 18.944 49.1922 21.728C49.1922 25.664 45.3522 28.976 32.2482 38.672V44H56.3442Z" fill="#102A43"/>
</svg>
